<?xml version="1.0" standalone="no"?>
<!DOCTYPE svg PUBLIC "-//W3C//DTD SVG 20010904//EN"
 "http://www.w3.org/TR/2001/REC-SVG-20010904/DTD/svg10.dtd">
<svg version="1.0" xmlns="http://www.w3.org/2000/svg"
 width="360.000000pt" height="360.000000pt" viewBox="0 0 360.000000 360.000000"
 preserveAspectRatio="xMidYMid meet">
<metadata>
Created by potrace 1.14, written by Peter Selinger 2001-2017
</metadata>
<g transform="translate(0.000000,360.000000) scale(0.100000,-0.100000)"
fill="#000000" stroke="none">
<path d="M1705 3506 c-168 -133 -302 -298 -380 -469 -64 -141 -116 -331 -130
-485 -7 -71 -8 -73 -44 -91 -121 -63 -297 -222 -404 -366 -80 -106 -171 -296
-202 -419 -33 -131 -49 -340 -36 -477 48 -494 387 -920 865 -1088 129 -46 235
-61 416 -61 181 0 287 16 416 61 455 160 764 525 860 1016 23 114 23 318 0
428 -41 195 -131 410 -225 535 -76 101 -265 278 -363 340 l-86 55 -7 78 c-9
105 -57 300 -102 411 -84 210 -231 401 -419 543 -39 29 -73 53 -75 53 -3 0
-40 -29 -84 -64z m164 -273 c156 -163 267 -399 300 -637 15 -107 13 -300 -4
-428 -16 -123 -27 -169 -62 -256 l-25 -63 29 -22 c62 -48 134 -122 164 -169
29 -45 79 -165 79 -188 0 -6 -211 -10 -561 -10 l-560 0 7 23 c47 152 108 242
233 338 l34 27 -31 83 c-36 102 -59 233 -67 394 -16 287 54 556 200 774 53 79
166 201 186 201 8 0 43 -30 78 -67z m465 -2045 c-9 -29 -26 -71 -38 -93 l-21
-40 -483 -3 -482 -2 -29 57 c-16 32 -33 75 -39 96 l-10 37 558 0 559 0 -15
-52z m-1318 15 c34 -155 98 -283 195 -388 l37 -40 -85 -118 c-46 -64 -89 -117
-96 -117 -30 0 -184 195 -238 303 -43 84 -98 255 -105 326 l-7 61 146 0 147 0
6 -27z m1846 -13 c-8 -73 -52 -222 -91 -305 -51 -110 -113 -202 -193 -289
l-64 -69 -91 124 -91 124 48 52 c86 94 154 228 181 354 l11 50 146 -3 147 -3
-3 -35z"/>
<path d="M1750 2801 c-88 -19 -163 -84 -191 -168 -6 -19 -9 -63 -7 -98 8 -128
98 -216 228 -223 84 -5 131 10 182 56 59 53 82 105 83 182 0 36 -4 74 -8 84
-7 17 -11 13 -31 -30 -12 -27 -29 -54 -37 -61 -12 -10 -14 -1 -16 54 -2 68
-34 153 -70 185 -22 20 -87 29 -133 19z"/>
</g>
</svg>
