<?xml version="1.0" standalone="no"?>
<!DOCTYPE svg PUBLIC "-//W3C//DTD SVG 20010904//EN"
 "http://www.w3.org/TR/2001/REC-SVG-20010904/DTD/svg10.dtd">
<svg version="1.0" xmlns="http://www.w3.org/2000/svg"
 width="840.000000pt" height="840.000000pt" viewBox="0 0 840.000000 840.000000"
 preserveAspectRatio="xMidYMid meet">
<metadata>
Created by potrace 1.14, written by Peter Selinger 2001-2017
</metadata>
<g transform="translate(0.000000,840.000000) scale(0.100000,-0.100000)"
fill="#000000" stroke="none">
<path d="M4077 8285 c-59 -41 -147 -104 -195 -141 -116 -90 -391 -366 -482
-484 -170 -220 -329 -499 -424 -740 l-44 -114 -129 -56 c-562 -244 -1038 -621
-1408 -1115 -375 -499 -602 -1071 -681 -1715 -21 -162 -24 -584 -6 -735 100
-840 442 -1557 1017 -2130 347 -346 736 -603 1180 -778 250 -98 445 -153 710
-197 734 -123 1482 -12 2142 319 356 178 626 373 914 660 560 559 893 1243
1005 2066 25 184 25 636 0 820 -74 540 -232 991 -501 1432 -275 448 -675 849
-1135 1137 -121 76 -378 208 -496 256 l-82 33 -32 86 c-187 493 -533 961 -945
1275 -108 82 -276 196 -289 196 -6 -1 -60 -34 -119 -75z m265 -694 c146 -140
234 -243 340 -401 409 -607 528 -1373 326 -2098 -59 -211 -61 -189 23 -247
307 -213 510 -467 624 -784 29 -79 65 -215 65 -243 0 -17 -51 -18 -1525 -18
-1157 0 -1525 3 -1525 12 0 28 56 221 87 298 110 275 288 499 554 696 71 53
129 97 129 98 0 1 -16 55 -35 121 -98 331 -133 657 -106 979 53 630 342 1223
790 1622 81 71 108 91 121 84 9 -5 68 -58 132 -119z m-2197 -4373 c3 -29 17
-100 31 -157 84 -356 271 -699 531 -971 l72 -76 -260 -359 c-142 -198 -264
-362 -270 -364 -18 -6 -313 300 -400 414 -346 454 -546 950 -613 1518 l-6 47
454 0 454 0 7 -52z m3575 45 c0 -5 -14 -59 -30 -122 -73 -276 -207 -507 -411
-708 -107 -105 -152 -141 -274 -217 -251 -158 -544 -234 -858 -223 -177 5
-284 23 -434 72 -228 75 -428 199 -608 379 -227 227 -355 466 -429 799 l-6 27
1525 0 c839 0 1525 -3 1525 -7z m1440 -1 c0 -35 -26 -203 -50 -322 -96 -479
-316 -936 -635 -1320 -84 -101 -313 -330 -329 -330 -9 1 -470 630 -515 705
-14 23 -11 27 70 113 212 222 366 480 464 776 43 127 85 307 85 360 l0 26 455
0 c250 0 455 -3 455 -8z"/>
<path d="M4073 6546 c-171 -42 -316 -176 -374 -346 -28 -82 -31 -229 -6 -308
62 -200 229 -344 433 -374 159 -23 323 33 439 148 164 164 201 413 92 618 -29
56 -141 185 -151 175 -2 -2 2 -29 10 -59 32 -125 10 -279 -55 -373 -41 -60
-56 -69 -36 -21 39 95 24 241 -39 369 -82 166 -159 208 -313 171z"/>
</g>
</svg>
